<svg height='300px' width='300px'  fill="#000000" xmlns="http://www.w3.org/2000/svg" xmlns:xlink="http://www.w3.org/1999/xlink" version="1.1" x="0px" y="0px" viewBox="0 0 120 120" style="enable-background:new 0 0 120 120;" xml:space="preserve"><g><polygon points="101.9,50.8 101.9,50.8 101.9,50.7  "></polygon><path d="M102,42.9c-4.3,0-7.8,3.5-7.8,7.9c0,4.3,3.5,7.8,7.8,7.8c4.3,0,7.8-3.5,7.8-7.8C109.8,46.4,106.3,42.9,102,42.9z M102,54.7   c-2.2,0-4-1.8-4-4c0-2.2,1.8-4,4-4c2.2,0,4,1.8,4,4C105.9,52.9,104.2,54.7,102,54.7z"></path><polygon points="60,64.5 60,64.5 60,64.4  "></polygon><path d="M60,56.6c-4.3,0-7.8,3.5-7.8,7.9c0,4.3,3.5,7.8,7.8,7.8c4.3,0,7.8-3.5,7.8-7.8C67.8,60.1,64.3,56.6,60,56.6z M60,68.4   c-2.2,0-4-1.8-4-4c0-2.2,1.8-4,4-4c2.2,0,4,1.8,4,4C64,66.6,62.2,68.4,60,68.4z"></path><path d="M33.3,92.4c-4.3,0-7.8,3.5-7.8,7.8c0,4.3,3.5,7.8,7.8,7.8c4.3,0,7.8-3.5,7.8-7.8C41.2,95.9,37.7,92.4,33.3,92.4z    M33.3,104.2c-2.2,0-4-1.8-4-4c0-2.2,1.8-4,4-4c2.2,0,4,1.8,4,4C37.3,102.4,35.5,104.2,33.3,104.2z"></path><path d="M25.5,50.6c0-4.3-3.5-7.8-7.8-7.8c-4.3,0-7.8,3.5-7.8,7.8s3.5,7.8,7.8,7.8C22,58.5,25.5,55,25.5,50.6z M17.7,54.6   c-2.2,0-4-1.8-4-4s1.8-4,4-4c2.2,0,4,1.8,4,4S19.8,54.6,17.7,54.6z"></path><path d="M60,12.2c-4.3,0-7.8,3.5-7.8,7.8c0,4.3,3.5,7.8,7.8,7.8s7.8-3.5,7.8-7.8C67.8,15.7,64.3,12.2,60,12.2z M60,24   c-2.2,0-4-1.8-4-4c0-2.2,1.8-4,4-4s4,1.8,4,4C64,22.2,62.2,24,60,24z"></path><path d="M93.6,100.2c0-4.3-3.5-7.8-7.9-7.8c-4.3,0-7.8,3.5-7.8,7.8c0,4.3,3.5,7.8,7.8,7.8C90.1,108.1,93.6,104.5,93.6,100.2z    M85.7,104.2c-2.2,0-4-1.8-4-4c0-2.2,1.8-4,4-4c2.2,0,4,1.8,4,4C89.7,102.4,87.9,104.2,85.7,104.2z"></path><path d="M60,52.6c0.5,0,0.9,0,1.4,0.1V31.8c-0.4,0.1-0.9,0.1-1.4,0.1c-0.5,0-0.9,0-1.3-0.1v20.9C59.1,52.6,59.5,52.6,60,52.6z"></path><path d="M29.4,53c-0.2,0.9-0.5,1.8-0.8,2.6L48.4,62c0.2-0.9,0.5-1.7,0.9-2.6L29.4,53z"></path><path d="M71.6,62l19.6-6.3c-0.4-0.8-0.7-1.7-0.8-2.6l-19.6,6.4C71.1,60.3,71.4,61.1,71.6,62z"></path><path d="M51.9,73L39.3,90c0.8,0.4,1.5,1,2.2,1.6l12.6-17C53.3,74.2,52.5,73.6,51.9,73z"></path><path d="M80,89.9L68,73.2c-0.7,0.6-1.4,1.1-2.2,1.6l12,16.7C78.5,90.9,79.2,90.3,80,89.9z"></path></g></svg>