<svg width="950" height="950" viewBox="0 0 950 950" fill="none" xmlns="http://www.w3.org/2000/svg">
<path d="M0 271.045C0 228.107 9.61678 191.543 28.8503 161.352C48.0839 131.162 72.641 106.003 102.522 85.8757C132.402 65.7486 165.374 49.9823 201.437 38.5769C237.5 27.1716 272.533 18.5616 306.535 12.7471C340.537 6.93264 371.276 3.35448 398.753 2.01268C426.229 0.670867 446.493 -3.67165e-05 459.544 -3.67165e-05H494.577C507.628 -3.67165e-05 527.892 0.670867 555.369 2.01268C582.845 3.35448 613.413 6.93264 647.072 12.7471C680.73 18.5616 715.591 27.1716 751.654 38.5769C787.717 49.9823 820.345 65.7486 849.539 85.8757C878.733 106.003 902.775 131.162 921.665 161.352C940.555 191.543 950 228.107 950 271.045V672.246C950 716.525 940.555 754.096 921.665 784.958C902.775 815.819 878.733 841.537 849.539 862.112C820.345 882.686 787.717 898.899 751.654 910.752C715.591 922.605 680.73 931.438 647.072 937.253C613.413 943.067 582.845 946.645 555.369 947.987C527.892 949.329 507.628 950 494.577 950H459.544C446.493 950 426.229 949.329 398.753 947.987C371.276 946.645 340.537 943.067 306.535 937.253C272.533 931.438 237.5 922.605 201.437 910.752C165.374 898.899 132.402 882.686 102.522 862.112C72.641 841.537 48.0839 815.819 28.8503 784.958C9.61678 754.096 0 716.525 0 672.246V271.045ZM342.082 697.74C343.456 714.289 349.295 728.825 359.599 741.349C368.529 752.531 382.095 762.594 400.298 771.54C418.501 780.485 444.432 784.958 478.091 784.958C511.063 784.958 536.479 780.485 554.338 771.54C572.198 762.594 585.593 752.531 594.523 741.349C604.14 728.825 609.978 714.289 612.039 697.74V260.311C609.978 244.209 604.14 229.673 594.523 216.702C585.593 205.967 572.198 196.016 554.338 186.847C536.479 177.678 511.063 173.093 478.091 173.093C444.432 173.093 418.501 177.678 400.298 186.847C382.095 196.016 368.529 205.967 359.599 216.702C349.295 229.673 343.456 244.209 342.082 260.311V697.74Z" fill="#202020"/>
</svg>
